<?xml version="1.0" standalone="no"?>
<!DOCTYPE svg PUBLIC "-//W3C//DTD SVG 20010904//EN"
 "http://www.w3.org/TR/2001/REC-SVG-20010904/DTD/svg10.dtd">
<svg version="1.0" xmlns="http://www.w3.org/2000/svg"
 width="512.000000pt" height="512.000000pt" viewBox="0 0 512.000000 512.000000"
 preserveAspectRatio="xMidYMid meet">
<metadata>
Created by potrace 1.15, written by Peter Selinger 2001-2017
</metadata>
<g transform="translate(0.000000,512.000000) scale(0.100000,-0.100000)"
fill="#333333" stroke="none">
<path d="M705 4315 c-279 -53 -499 -235 -605 -499 -17 -41 -33 -95 -36 -120
-6 -42 -9 -46 -35 -46 l-29 0 0 -1090 0 -1090 29 0 c26 0 29 -4 35 -46 3 -25
19 -79 36 -120 108 -271 342 -458 630 -504 90 -14 3570 -14 3660 0 288 46 522
233 630 504 17 41 33 95 36 120 6 42 9 46 35 46 l29 0 0 1090 0 1090 -29 0
c-26 0 -29 4 -35 46 -3 25 -19 79 -36 120 -108 271 -342 458 -630 504 -43 6
-672 10 -1840 9 -1427 -1 -1789 -3 -1845 -14z m3595 -350 l0 -55 -767 -926
c-422 -510 -785 -940 -807 -956 -54 -39 -107 -51 -202 -46 -99 5 -150 31 -223
116 -28 31 -374 453 -770 937 l-721 880 0 53 0 52 1745 0 1745 0 0 -55z m427
-181 c14 -30 29 -85 34 -122 4 -37 8 -533 8 -1102 0 -569 -4 -1065 -8 -1102
-22 -170 -148 -310 -312 -347 -61 -14 -3717 -14 -3778 0 -164 37 -290 177
-312 347 -11 86 -11 2116 0 2202 5 36 19 89 31 118 l22 52 58 0 57 0 803 -980
c441 -539 823 -997 849 -1019 97 -80 200 -129 317 -150 110 -20 268 33 400
132 47 36 250 275 880 1037 l819 990 53 0 53 0 26 -56z"/>
</g>
</svg>
