<?xml version="1.0" standalone="no"?>
<!DOCTYPE svg PUBLIC "-//W3C//DTD SVG 20010904//EN"
 "http://www.w3.org/TR/2001/REC-SVG-20010904/DTD/svg10.dtd">
<svg version="1.0" xmlns="http://www.w3.org/2000/svg"
 width="841.000000pt" height="436.000000pt" viewBox="0 0 841.000000 436.000000"
 preserveAspectRatio="xMidYMid meet">
<metadata>
Created by potrace 1.15, written by Peter Selinger 2001-2017
</metadata>
<g transform="translate(0.000000,436.000000) scale(0.100000,-0.100000)"
fill="#000000" stroke="none">
<path d="M1861 4130 c-81 -11 -154 -54 -229 -135 -88 -95 -122 -191 -122 -346
l0 -66 -137 -7 c-149 -7 -248 -24 -315 -54 -54 -24 -137 -99 -177 -159 -58
-87 -63 -121 -70 -433 l-6 -285 -156 -5 c-155 -5 -155 -5 -232 -43 -123 -61
-201 -174 -214 -309 -10 -117 24 -215 108 -303 92 -98 179 -124 405 -125 76 0
82 -2 88 -22 3 -13 6 -117 6 -233 1 -366 14 -423 128 -547 98 -106 206 -138
459 -138 l113 0 0 -52 c1 -221 87 -378 254 -462 52 -27 72 -30 214 -39 188
-12 348 1 437 34 70 26 168 116 205 189 52 100 53 116 57 713 l4 557 1513 0
1514 0 6 -31 c3 -17 6 -239 6 -493 1 -554 7 -644 46 -724 39 -76 134 -171 209
-208 l60 -29 275 0 275 0 71 42 c158 94 233 237 234 449 l0 51 163 6 c224 8
313 35 398 119 43 43 106 142 120 187 6 20 13 146 15 281 3 135 7 269 10 298
l5 52 82 0 c148 0 252 16 307 46 59 32 139 114 168 170 85 170 30 388 -124
495 -77 52 -116 62 -284 68 l-155 6 -6 285 c-7 312 -12 346 -69 432 -42 63
-122 135 -176 159 -69 31 -166 48 -316 55 l-138 7 0 72 c0 154 -37 252 -131
351 -114 118 -192 139 -509 132 l-207 -4 -66 -32 c-79 -39 -166 -129 -217
-222 l-35 -65 -5 -585 -5 -585 -1511 -3 -1511 -2 -7 31 c-3 17 -6 232 -6 478
0 245 -5 500 -9 567 -8 106 -13 129 -41 184 -43 85 -109 149 -205 196 l-79 39
-210 2 c-116 0 -240 -3 -275 -7z"/>
</g>
</svg>
