<?xml version="1.0" standalone="no"?>
<!DOCTYPE svg PUBLIC "-//W3C//DTD SVG 20010904//EN"
 "http://www.w3.org/TR/2001/REC-SVG-20010904/DTD/svg10.dtd">
<svg version="1.0" xmlns="http://www.w3.org/2000/svg"
 width="225.000000pt" height="225.000000pt" viewBox="0 0 225.000000 225.000000"
 preserveAspectRatio="xMidYMid meet">
<metadata>
Created by potrace 1.15, written by Peter Selinger 2001-2017
</metadata>
<g transform="translate(0.000000,225.000000) scale(0.100000,-0.100000)"
fill="#0163C1" stroke="none">
<path d="M1250 1760 c-384 -117 -428 -132 -452 -160 l-28 -30 0 -325 0 -325
-57 0 c-242 -1 -358 -313 -179 -478 60 -56 118 -75 209 -71 61 4 83 10 123 34
56 35 109 100 124 153 6 23 10 199 10 458 l0 421 273 82 c149 44 278 81 285
81 9 0 12 -59 12 -260 l0 -260 -48 0 c-105 0 -199 -58 -246 -152 -33 -66 -36
-170 -7 -234 103 -227 428 -219 517 12 18 46 19 81 19 564 0 549 -1 562 -49
593 -50 33 -69 29 -506 -103z"/>
</g>
</svg>
