<?xml version="1.0" standalone="no"?>
<!DOCTYPE svg PUBLIC "-//W3C//DTD SVG 20010904//EN"
 "http://www.w3.org/TR/2001/REC-SVG-20010904/DTD/svg10.dtd">
<svg version="1.0" xmlns="http://www.w3.org/2000/svg"
 width="512.000000pt" height="512.000000pt" viewBox="0 0 512.000000 512.000000"
 preserveAspectRatio="xMidYMid meet">
<metadata>
Created by potrace 1.15, written by Peter Selinger 2001-2017
</metadata>
<g transform="translate(0.000000,512.000000) scale(0.100000,-0.100000)"
fill="#333333" stroke="none">
<path d="M1164 4995 c-40 -20 -114 -74 -175 -127 -59 -51 -140 -121 -182 -156
-243 -205 -423 -519 -498 -872 -30 -139 -32 -404 -5 -555 101 -566 394 -1122
924 -1755 745 -891 1469 -1368 2184 -1440 299 -30 660 69 941 257 167 112 468
396 506 478 28 60 29 95 3 162 -45 117 -164 251 -417 467 -241 206 -386 300
-530 341 -167 49 -304 -25 -615 -330 -79 -78 -122 -112 -170 -134 -62 -30 -71
-31 -193 -31 -111 0 -139 3 -204 25 -227 77 -513 317 -844 710 -230 274 -375
503 -440 695 -25 77 -33 117 -37 207 -9 215 32 304 197 426 135 100 312 257
355 316 102 138 112 246 40 438 -70 186 -331 596 -481 753 -92 97 -194 160
-258 160 -18 0 -63 -16 -101 -35z"/>
</g>
</svg>
