<?xml version="1.0" standalone="no"?>
<!DOCTYPE svg PUBLIC "-//W3C//DTD SVG 20010904//EN"
 "http://www.w3.org/TR/2001/REC-SVG-20010904/DTD/svg10.dtd">
<svg version="1.0" xmlns="http://www.w3.org/2000/svg"
 width="1126.000000pt" height="1228.000000pt" viewBox="0 0 1126.000000 1228.000000"
 preserveAspectRatio="xMidYMid meet">
<metadata>
Created by potrace 1.15, written by Peter Selinger 2001-2017
</metadata>
<g transform="translate(0.000000,1228.000000) scale(0.100000,-0.100000)"
fill="#000000" stroke="none">
<path d="M5445 11220 c-3 -5 -19 -10 -35 -10 -16 0 -45 -9 -65 -20 -20 -11
-44 -20 -54 -20 -10 0 -26 -9 -36 -20 -10 -11 -23 -20 -30 -20 -6 0 -24 -13
-40 -30 -16 -16 -38 -30 -49 -30 -29 0 -4526 -4497 -4526 -4526 0 -11 -14 -33
-30 -49 -17 -16 -30 -34 -30 -40 0 -7 -9 -20 -20 -30 -11 -10 -20 -26 -20 -36
0 -10 -9 -34 -20 -54 -11 -20 -20 -49 -20 -65 0 -16 -4 -32 -10 -35 -13 -8
-13 -142 0 -150 6 -3 10 -19 10 -35 0 -16 9 -45 20 -65 11 -20 20 -42 20 -49
0 -24 29 -71 65 -106 19 -18 35 -44 35 -55 0 -27 39 -65 66 -65 11 0 31 -11
44 -25 25 -27 74 -55 96 -55 7 0 29 -9 49 -20 20 -11 53 -20 73 -20 21 0 42
-4 48 -10 6 -6 151 -11 374 -12 l365 -3 3 -1970 c2 -1725 4 -1974 17 -2001 8
-18 15 -40 15 -51 0 -10 7 -31 15 -47 8 -15 15 -34 15 -41 0 -25 30 -71 75
-115 25 -24 45 -50 45 -57 0 -7 6 -13 13 -13 7 0 31 -18 52 -40 21 -22 44 -40
50 -40 7 0 20 -9 30 -20 10 -11 26 -20 36 -20 10 0 34 -9 54 -20 20 -11 49
-20 65 -20 16 0 32 -4 35 -10 10 -16 1917 -14 1933 2 9 9 12 390 12 1654 0
1085 3 1645 10 1649 6 3 10 17 10 30 0 13 4 27 10 30 6 3 10 15 10 25 0 11 9
35 20 55 11 20 20 44 20 53 0 10 14 31 30 47 17 16 30 34 30 40 0 14 92 105
106 105 6 0 23 13 39 30 16 17 37 30 47 30 9 0 33 9 53 20 20 11 44 20 55 20
10 0 22 5 25 10 3 6 17 10 30 10 13 0 27 5 30 10 9 14 1601 14 1610 0 3 -5 17
-10 30 -10 13 0 27 -4 30 -10 3 -5 15 -10 25 -10 11 0 35 -9 55 -20 20 -11 44
-20 53 -20 10 0 31 -13 47 -30 16 -16 34 -30 40 -30 14 0 105 -92 105 -106 0
-6 14 -23 30 -39 17 -16 30 -37 30 -47 0 -9 9 -33 20 -53 11 -20 20 -44 20
-55 0 -10 5 -22 10 -25 6 -3 10 -17 10 -30 0 -13 5 -27 10 -30 7 -4 10 -564
10 -1649 0 -1264 3 -1645 12 -1654 16 -16 1923 -18 1933 -2 3 5 19 10 35 10
16 0 45 9 65 20 20 11 44 20 54 20 10 0 26 9 36 20 10 11 23 20 30 20 6 0 29
18 50 40 21 22 45 40 52 40 7 0 13 6 13 13 0 7 18 31 40 52 22 21 40 44 40 50
0 7 9 20 20 30 11 10 20 26 20 35 0 10 7 31 15 46 8 16 15 37 15 47 0 11 7 33
15 51 13 27 15 276 17 2001 l3 1970 365 3 c223 1 368 6 374 12 6 6 27 10 48
10 20 0 53 9 73 20 20 11 42 20 49 20 22 0 71 28 96 55 13 14 33 25 45 25 26
0 65 39 65 66 0 11 16 36 35 54 36 35 65 82 65 106 0 7 9 29 20 49 11 20 20
49 20 65 0 16 5 32 10 35 6 3 10 37 10 75 0 38 -4 72 -10 75 -5 3 -10 19 -10
35 0 16 -9 45 -20 65 -11 20 -20 44 -20 54 0 10 -9 26 -20 36 -11 10 -20 23
-20 30 0 6 -13 24 -30 40 -16 16 -30 38 -30 49 0 29 -4497 4526 -4526 4526
-11 0 -33 14 -49 30 -16 17 -34 30 -40 30 -7 0 -20 9 -30 20 -10 11 -26 20
-36 20 -10 0 -34 9 -54 20 -20 11 -49 20 -65 20 -16 0 -32 5 -35 10 -3 6 -37
10 -75 10 -38 0 -72 -4 -75 -10z"/>
</g>
</svg>
